<svg xmlns="http://www.w3.org/2000/svg" xmlns:xlink="http://www.w3.org/1999/xlink" width="47.728" height="47.728" viewBox="0 0 47.728 47.728"><defs><style>.a{fill:#0d2784;}.b{fill:#6e8dff;}.c{fill:url(#a);}.d{fill:url(#b);}.e{fill:#283cc6;}.f{fill:#a1b5ff;}.g{fill:url(#c);}.h{fill:url(#d);}</style><linearGradient id="a" x1="-277.178" y1="125.408" x2="-276.657" y2="124.774" gradientUnits="objectBoundingBox"><stop offset="0.002" stop-color="#173087"/><stop offset="1" stop-color="#283cc6"/></linearGradient><linearGradient id="b" x1="-279.044" y1="127.145" x2="-278.71" y2="126.797" gradientUnits="objectBoundingBox"><stop offset="0" stop-color="#6e8dff"/><stop offset="1" stop-color="#8da0ff"/></linearGradient><linearGradient id="c" x1="-279.139" y1="125.779" x2="-278.514" y2="126.4" gradientUnits="objectBoundingBox"><stop offset="0" stop-color="#6e8dff"/><stop offset="1" stop-color="#283cc6"/></linearGradient><linearGradient id="d" x1="-280.34" y1="124.542" x2="-280.856" y2="124.053" gradientUnits="objectBoundingBox"><stop offset="0" stop-color="#8da0ff"/><stop offset="1" stop-color="#0d2784"/></linearGradient></defs><g transform="translate(-1877.129 -46.156)"><path class="a" d="M1910.9,93.75a24.62,24.62,0,0,0-10.476-2.02c-6.564,0-9.341,2.02-9.341,2.02l9.909-23.73Z"/><path class="b" d="M1910.9,46.29a24.63,24.63,0,0,1-10.476,2.019c-6.564,0-9.341-2.019-9.341-2.019l9.909,23.73Z"/><path class="c" d="M1891.029,93.726a24.622,24.622,0,0,0-5.909-8.883c-4.6-4.679-7.991-5.242-7.991-5.242l23.864-9.581Z"/><path class="d" d="M1924.857,60.438a24.618,24.618,0,0,1-8.788-6.051c-4.6-4.678-5.112-8.074-5.112-8.074l-9.964,23.707Z"/><path class="e" d="M1877.184,79.737a24.623,24.623,0,0,0,2.1-10.46c.052-6.563-1.945-9.356-1.945-9.356l23.65,10.1Z"/><path class="f" d="M1924.642,80.119a24.626,24.626,0,0,1-1.935-10.493c.053-6.563,2.095-9.324,2.095-9.324l-23.809,9.718Z"/><path class="g" d="M1877.286,60.056a24.621,24.621,0,0,0,8.884-5.909c4.678-4.6,5.241-7.991,5.241-7.991l9.582,23.864Z"/><path class="h" d="M1910.574,93.884a24.636,24.636,0,0,1,6.051-8.788c4.679-4.6,8.074-5.112,8.074-5.112l-23.706-9.964Z"/></g></svg>